<svg width="178" height="18" viewBox="0 0 178 18" fill="none" xmlns="http://www.w3.org/2000/svg">
<path d="M16.3649 17.6629H21.8661V0.353386H16.3649V17.6629Z" fill="#F42323"/>
<path d="M6.36268 17.6627L16.365 0.353176H10.0024L0.000116348 17.6627H6.36268Z" fill="#F42323"/>
<path d="M30.4223 17.667H24.9255V0.357521H30.4223V17.667Z" fill="#F42323"/>
<path d="M45.2806 0C50.0278 0 53.3908 2.54676 53.3167 6.67578H48.4202C48.1977 4.47538 47.5798 3.83203 45.0579 3.83203C42.1653 3.83206 41.4232 4.67321 41.4232 9.02441C41.4232 13.376 42.1652 14.1679 45.0579 14.168C47.5799 14.168 48.1977 13.5247 48.4202 11.3242H53.3167C53.4156 15.4039 50.0031 18 45.2064 18C39.3466 18 36.429 14.3897 36.429 9.02441C36.4292 3.63456 39.4456 1.53543e-05 45.2806 0ZM72.9056 12.585C72.9056 14.3652 73.2515 14.7119 74.7845 14.7119C76.4902 14.7119 76.8362 14.3407 76.8363 12.5361V4.9209H81.1136V17.6543H77.1829L77.1087 16.541H76.2923C75.6 17.3075 74.3389 18 72.6575 18C70.0865 17.9999 68.603 16.5906 68.6029 13.5498V4.9209H72.9056V12.585ZM88.7152 4.57422C91.8553 4.57422 94.7236 6.05793 94.6741 8.82715H90.5697C90.4955 7.71452 90.1244 7.26953 88.5667 7.26953C87.0837 7.26963 86.7875 7.73911 86.7874 8.38184C86.7874 8.97524 87.0344 9.27224 88.0482 9.44531L90.9906 9.96387C93.5124 10.409 94.8724 11.6955 94.8724 13.5498C94.8722 16.0221 92.6468 17.9999 88.6663 18C85.279 18 82.4109 16.5165 82.4603 13.6484H86.5648C86.639 14.8351 87.0342 15.3046 88.7894 15.3047C90.446 15.3047 90.7679 14.8352 90.7679 14.1182C90.7679 13.5495 90.4711 13.2528 89.2845 13.0303L86.4163 12.5361C83.9934 12.0911 82.7075 10.7804 82.7074 8.97559C82.7074 6.47843 84.9819 4.57435 88.7152 4.57422ZM154.561 6.0332H155.376C156.019 5.21727 157.28 4.57422 158.764 4.57422C161.657 4.5744 163.808 6.97275 163.808 11.25C163.808 15.6511 161.483 18 158.492 18C156.811 18 155.673 17.2585 155.129 16.418H154.313L154.239 17.6543H150.308V0.34668H154.561V6.0332ZM170.854 4.57422C173.994 4.57428 176.862 6.05799 176.813 8.82715H172.708C172.634 7.71454 172.263 7.26955 170.705 7.26953C169.222 7.26953 168.925 7.73904 168.925 8.38184C168.925 8.97521 169.172 9.27223 170.186 9.44531L173.128 9.96387C175.65 10.4089 177.01 11.6954 177.01 13.5498C177.01 16.0222 174.785 18 170.804 18C167.417 17.9999 164.549 16.5165 164.598 13.6484H168.702C168.777 14.8352 169.173 15.3047 170.928 15.3047C172.584 15.3046 172.906 14.8352 172.906 14.1182C172.906 13.5495 172.609 13.2528 171.422 13.0303L168.554 12.5361C166.131 12.0911 164.845 10.7804 164.845 8.97559C164.845 6.47835 167.12 4.57422 170.854 4.57422ZM102.843 4.59277C105.711 4.59277 108.679 5.60701 108.679 9.36523V17.6729H104.747L104.673 16.5605H103.857C103.288 17.4008 101.83 17.9198 100.371 17.9199C97.9236 17.9199 96.1429 16.4116 96.1429 13.8896C96.143 11.887 97.2806 10.3296 100.544 10.0576L104.525 9.73633V8.82129C104.525 7.70866 104.005 7.46094 102.67 7.46094C101.063 7.46097 100.692 7.8819 100.643 9.04395H96.4398C96.4151 6.349 98.9615 4.59289 102.843 4.59277ZM142.594 4.59277C145.462 4.59281 148.429 5.60708 148.429 9.36523V17.6729H144.497L144.423 16.5605H143.608C143.039 17.4011 141.58 17.9199 140.121 17.9199C137.674 17.9199 135.894 16.4116 135.894 13.8896C135.894 11.887 137.031 10.3296 140.294 10.0576L144.276 9.73633V8.82129C144.276 7.70876 143.756 7.46098 142.421 7.46094C140.814 7.46094 140.442 7.88186 140.393 9.04395H136.19C136.165 6.34891 138.712 4.59277 142.594 4.59277ZM60.8148 4.57422C63.6829 4.57422 66.6497 5.58846 66.6497 9.34668V17.6543H62.7191L62.6449 16.541H61.8284C61.2598 17.3817 59.8009 17.9014 58.3421 17.9014C55.8946 17.9012 54.1147 16.3928 54.1146 13.8711C54.1146 11.8684 55.2522 10.3101 58.5159 10.0381L62.4964 9.7168V8.80273C62.4964 7.69011 61.9771 7.44239 60.6419 7.44238C59.035 7.44238 58.6641 7.86263 58.6146 9.02441H54.4115C54.387 6.32964 56.9332 4.57428 60.8148 4.57422ZM115.274 17.6543H110.971V0.34668H115.274V17.6543ZM127.145 14.0439H134.537V17.6543H122.645V0.34668H127.145V14.0439ZM101.755 12.4805C100.618 12.5794 100.371 12.8766 100.371 13.7666C100.372 14.78 100.817 15.0762 102.325 15.0762C104.129 15.0761 104.525 14.557 104.525 13.123V12.209L101.755 12.4805ZM141.506 12.4805C140.369 12.5794 140.121 12.8765 140.121 13.7666C140.122 14.78 140.567 15.0762 142.075 15.0762C143.879 15.0762 144.276 14.5571 144.276 13.123V12.209L141.506 12.4805ZM59.7269 12.4619C58.5898 12.5608 58.3422 12.8572 58.3421 13.7471C58.3421 14.7608 58.788 15.0576 60.2962 15.0576C62.1007 15.0575 62.4964 14.5384 62.4964 13.1045V12.1895L59.7269 12.4619ZM156.934 7.76367C154.758 7.76369 154.487 8.25832 154.487 11.2744C154.487 14.2908 154.758 14.8105 156.934 14.8105C159.085 14.8105 159.382 14.2909 159.382 11.2744C159.382 8.25828 159.085 7.76367 156.934 7.76367Z" fill="black"/>
</svg>
